# Blender 3.4.1
# www.blender.org
mtllib база.mtl
o Куб
v -1.702340 -1.219927 2.666851
v -1.539070 -0.774398 2.401864
v -1.702340 -1.219927 -2.740583
v -1.539070 -0.774398 -2.475595
v 1.629420 -1.219927 2.666851
v 1.466149 -0.774398 2.401864
v 1.629420 -1.219927 -2.740583
v 1.466149 -0.774398 -2.475595
v -1.702340 1.249368 2.666851
v -1.702340 1.249368 -2.740583
v 1.629420 1.249368 -2.740583
v 1.629420 1.249368 2.666851
v -1.539070 1.249368 2.401864
v -1.539070 1.249368 -2.475595
v 1.466149 1.249368 -2.475595
v 1.494547 1.249368 2.401864
v -1.702340 -1.219927 -2.270371
v -1.702340 -1.219927 -2.035265
v -1.702340 -1.219927 1.491322
v -1.702340 -1.219927 1.726428
v -1.702340 -1.219927 1.961534
v -1.702340 -1.219927 2.196640
v 1.629420 -1.219927 2.196640
v 1.629420 -1.219927 1.961534
v 1.629420 -1.219927 1.726428
v 1.629420 -1.219927 1.491322
v 1.629420 -1.219927 -2.035265
v 1.629420 -1.219927 -2.270371
v 1.466149 -0.774398 1.765674
v 1.466149 -0.774398 1.977737
v -1.702340 1.249368 2.196640
v -1.702340 1.249368 1.961534
v -1.702340 1.249368 1.726428
v -1.702340 1.249368 1.491322
v -1.702340 1.249368 -2.035265
v -1.702340 1.249368 -2.270371
v 1.629420 1.249368 -2.270371
v 1.629420 1.249368 -2.035265
v 1.629420 1.249368 1.491322
v 1.629420 1.249368 1.726428
v 1.629420 1.249368 1.961534
v 1.629420 1.249368 2.196640
v 1.466149 1.249368 1.765674
v 1.494547 1.249368 1.977737
v 1.819389 -1.219927 2.196640
v 1.819389 -1.219927 1.961534
v 1.819389 -1.219927 1.726428
v 1.819389 -1.219927 1.491322
v 1.819389 1.249368 1.491322
v 1.819389 1.249368 1.726428
v 1.819389 1.249368 1.961534
v 1.819389 1.249368 2.196640
v 1.819389 -1.219927 2.196640
v 1.819389 -1.219927 1.961534
v 1.819389 -1.219927 1.726428
v 1.819389 -1.219927 1.491322
v 1.819389 -1.409896 2.196640
v 1.819389 -1.409896 1.961534
v 1.819389 -1.409896 1.726428
v 1.819389 -1.409896 1.491322
v -1.892309 1.249368 2.196640
v -1.892309 1.249368 1.961534
v -1.892309 1.249368 1.726428
v -1.892309 1.249368 1.491322
v -1.892309 -1.409896 1.491322
v -1.892309 -1.409896 1.726428
v -1.892309 -1.409896 1.961534
v -1.892309 -1.409896 2.196640
v 1.819389 1.249368 -2.270371
v 1.819389 1.249368 -2.035265
v -1.892309 1.249368 -2.035265
v -1.892309 1.249368 -2.270371
v -1.892309 -1.409896 -2.035265
v 1.819389 -1.409896 -2.035265
v 1.819389 -1.409896 -2.270371
v -1.892309 -1.409896 -2.270371
v 1.629420 0.125053 -2.740583
v 1.629420 0.349916 -2.740583
v 1.629420 0.349916 2.666851
v 1.629420 0.125053 2.666851
v -1.702340 0.125053 2.666851
v -1.702340 0.349916 2.666851
v -1.702340 0.349916 -2.740583
v -1.702340 0.125053 -2.740583
v -1.702340 0.125053 -2.270371
v -1.702340 0.349916 -2.270371
v -1.702340 0.125053 -2.035265
v -1.702340 0.349916 -2.035265
v -1.702340 0.125053 1.491322
v -1.702340 0.349916 1.491322
v -1.702340 0.125053 2.196640
v -1.702340 0.349916 2.196640
v 1.629420 0.125053 2.196640
v 1.629420 0.349916 2.196640
v 1.629420 0.125053 1.491322
v 1.629420 0.349916 1.491322
v 1.629420 0.125053 -2.035265
v 1.629420 0.349916 -2.035265
v 1.629420 0.125053 -2.270371
v 1.629420 0.349916 -2.270371
v 1.819389 0.125053 1.491322
v 1.819389 0.349916 1.491322
v 1.819389 0.125053 -2.035265
v 1.819389 0.349916 -2.035265
v 1.819389 0.125053 -2.270371
v 1.819389 0.349916 -2.270371
v 1.819389 0.125053 -2.930552
v 1.819389 0.349916 -2.930552
v -1.892309 0.125053 -2.270371
v -1.892309 0.349916 -2.270371
v -1.892309 0.125053 -2.035265
v -1.892309 0.349916 -2.035265
v -1.892309 0.125053 1.491322
v -1.892309 0.349916 1.491322
v -1.892309 0.349916 -2.930552
v -1.892309 0.125053 -2.930552
v -1.892309 0.125053 2.196640
v -1.892309 0.349916 2.196640
v 1.819389 0.125053 2.196640
v 1.819389 0.349916 2.196640
v -1.892309 0.349916 2.856820
v -1.892309 0.125053 2.856820
v 1.819389 0.349916 2.856820
v 1.819389 0.125053 2.856820
v 1.629420 1.249368 1.961534
v 1.629420 1.249368 2.196640
v 1.819389 1.249368 1.961534
v 1.819389 1.249368 2.196640
v -1.702340 1.439337 2.196640
v 1.629510 1.249368 2.196640
v 1.629510 1.249368 1.961534
v 1.629510 1.439337 2.196640
v -1.702340 1.249368 2.196640
v -1.702340 1.439337 2.196640
v 1.629510 1.249368 2.196640
v 1.629510 1.439337 2.196640
v 1.297660 1.249368 2.671402
v 1.629510 1.249368 2.671402
vn -1.0000 -0.0000 -0.0000
vn -0.0000 -1.0000 -0.0000
vn -0.0000 -0.0000 -1.0000
vn -0.0000 1.0000 -0.0000
vn -0.0000 -0.0000 1.0000
vn -0.9977 0.0070 0.0668
vn 1.0000 -0.0000 -0.0000
vn -0.9999 0.0140 -0.0000
vt 0.260944 0.213347
vt 0.119949 0.424712
vt 0.041657 0.287912
vt 0.399122 0.418519
vt 0.449991 0.418519
vt 0.538652 0.498629
vt 0.226955 0.229609
vt 0.154019 0.354540
vt 0.041657 0.287912
vt 0.443609 0.188727
vt 0.500857 0.418519
vt 0.538652 0.408201
vt 0.260944 0.391577
vt 0.064649 0.287912
vt 0.197061 0.229609
vt 0.348257 0.418519
vt 0.449987 0.418519
vt 0.606536 0.328259
vt 0.154019 0.176310
vt 0.018665 0.287912
vt 0.197061 0.229609
vt 0.494475 0.188727
vt 0.399123 0.418519
vt 0.606536 0.237830
vt 0.129756 0.324458
vt 0.242128 0.254445
vt 0.064649 0.370432
vt 0.210407 0.254445
vt 0.224548 0.393081
vt 0.110633 0.370432
vt 0.224548 0.393081
vt 0.210407 0.432675
vt 0.087641 0.370432
vt 0.242128 0.432675
vt 0.220550 0.393081
vt 0.087641 0.370432
vt 0.494956 0.188727
vt 0.545824 0.188727
vt 0.240574 0.263179
vt 0.454026 0.551529
vt 0.596690 0.188727
vt 0.211962 0.263179
vt 0.504892 0.551529
vt 0.494956 0.188727
vt 0.211962 0.423941
vt 0.443609 0.188727
vt 0.545824 0.188728
vt 0.240574 0.425460
vt 0.228955 0.229609
vt 0.770329 0.633950
vt 0.156777 0.354540
vt 0.806574 0.633950
vt 0.140622 0.411306
vt 0.214022 0.229609
vt 0.823814 0.774702
vt 0.125628 0.411306
vt 0.205588 0.229609
vt 0.247002 0.043939
vt 0.198498 0.425669
vt 0.772093 0.633950
vt 0.248002 0.043939
vt 0.199060 0.425669
vt 0.841054 0.774702
vt 0.263702 0.213347
vt 0.124852 0.424712
vt 0.789334 0.633950
vt 0.263702 0.391577
vt 0.658287 0.778370
vt 0.658287 0.808857
vt 0.804809 0.633950
vt 0.901186 0.622220
vt 0.199060 0.229609
vt 0.199060 0.353003
vt 0.659666 0.778370
vt 0.900303 0.622220
vt 0.659666 0.808857
vt 0.856530 0.774702
vt 0.245003 0.043939
vt 0.198498 0.353003
vt 0.658287 0.788532
vt 0.658287 0.768208
vt 0.787569 0.633950
vt 0.902068 0.622220
vt 0.246003 0.043939
vt 0.901186 0.622220
vt 0.110633 0.287912
vt 0.659666 0.788532
vt 0.659666 0.768208
vt 0.839290 0.774702
vt 0.205588 0.302275
vt 0.125628 0.287912
vt 0.822049 0.633950
vt 0.214022 0.302275
vt 0.754853 0.633950
vt 0.156777 0.176310
vt 0.195062 0.229609
vt 0.443353 0.418519
vt 0.606536 0.316464
vt 0.445564 0.418519
vt 0.606536 0.320395
vt 0.124852 0.324458
vt 0.789334 0.786433
vt 0.239370 0.254445
vt 0.248002 0.270483
vt 0.237991 0.254445
vt 0.841054 0.622220
vt 0.874968 0.833033
vt 0.247002 0.270483
vt 0.236612 0.254445
vt 0.772093 0.786433
vt 0.892653 0.749979
vt 0.823814 0.622220
vt 0.235232 0.254445
vt 0.155617 0.287912
vt 0.892275 0.749979
vt 0.806574 0.786433
vt 0.214545 0.254445
vt 0.170611 0.287912
vt 0.886598 0.749979
vt 0.770329 0.786433
vt 0.213166 0.254445
vt 0.226548 0.393081
vt 0.886219 0.749979
vt 0.222549 0.393081
vt 0.754853 0.786433
vt 0.213166 0.432675
vt 0.886219 0.798889
vt 0.822049 0.786433
vt 0.214545 0.432675
vt 0.155617 0.370432
vt 0.886598 0.798889
vt 0.901186 0.774702
vt 0.235232 0.432675
vt 0.140622 0.370432
vt 0.892275 0.798889
vt 0.236612 0.432675
vt 0.902068 0.774702
vt 0.246003 0.270483
vt 0.892653 0.798889
vt 0.900303 0.774702
vt 0.237991 0.432675
vt 0.245003 0.270483
vt 0.598240 0.190988
vt 0.239370 0.432675
vt 0.901186 0.774702
vt 0.222549 0.393081
vt 0.598240 0.190988
vt 0.539186 0.188727
vt 0.236842 0.423941
vt 0.541401 0.188728
vt 0.238086 0.425460
vt 0.658287 0.788532
vt 0.906988 0.622220
vt 0.902068 0.622220
vt 0.659666 0.788532
vt 0.899421 0.622220
vt 0.907661 0.622220
vt 0.658287 0.798695
vt 0.905642 0.622220
vt 0.902951 0.622220
vt 0.900303 0.622220
vt 0.659666 0.798695
vt 0.906315 0.622220
vt 0.900303 0.774702
vt 0.906315 0.774702
vt 0.892275 0.801678
vt 0.905642 0.774702
vt 0.902951 0.774702
vt 0.892653 0.801678
vt 0.899421 0.774702
vt 0.907661 0.774702
vt 0.598240 0.190988
vt 0.906988 0.774702
vt 0.902068 0.774702
vt 0.598240 0.190988
vt 0.808711 0.853706
vt 0.658287 0.798695
vt 0.805692 0.633950
vt 0.809384 0.853706
vt 0.659666 0.798695
vt 0.857412 0.774702
vt 0.658287 0.758046
vt 0.809384 0.853706
vt 0.788451 0.633950
vt 0.659666 0.758046
vt 0.810057 0.853706
vt 0.840172 0.774702
vt 0.898583 0.747190
vt 0.808711 0.841975
vt 0.805692 0.622220
vt 0.898204 0.747190
vt 0.809384 0.841975
vt 0.857412 0.786433
vt 0.898961 0.747190
vt 0.809384 0.841975
vt 0.788451 0.622220
vt 0.898583 0.747190
vt 0.810057 0.841975
vt 0.840172 0.786433
vt 0.788451 0.786433
vt 0.905642 0.786433
vt 0.874590 0.835822
vt 0.840172 0.622220
vt 0.904969 0.786433
vt 0.874968 0.835822
vt 0.904296 0.786433
vt 0.771211 0.786433
vt 0.892653 0.747190
vt 0.903624 0.786433
vt 0.822932 0.622220
vt 0.892275 0.747190
vt 0.903624 0.622220
vt 0.898583 0.801678
vt 0.822932 0.786433
vt 0.904296 0.622220
vt 0.898961 0.801678
vt 0.771211 0.622220
vt 0.898204 0.801678
vt 0.840172 0.786433
vt 0.904969 0.622220
vt 0.898583 0.801678
vt 0.788451 0.622220
vt 0.905642 0.622220
vt 0.753971 0.786433
vt 0.903624 0.786433
vt 0.886219 0.801678
vt 0.822932 0.786433
vt 0.902951 0.786433
vt 0.886598 0.801678
vt 0.904969 0.786433
vt 0.805692 0.786433
vt 0.886598 0.747190
vt 0.904296 0.786433
vt 0.771211 0.786433
vt 0.886219 0.747190
vt 0.904969 0.622220
vt 0.805692 0.622220
vt 0.898751 0.857220
vt 0.822932 0.622220
vt 0.898751 0.802732
vt 0.902951 0.622220
vt 0.753971 0.622220
vt 0.898373 0.802732
vt 0.903624 0.622220
vt 0.904296 0.622220
vt 0.771211 0.622220
vt 0.898373 0.857220
vt 0.018665 0.411306
vt 0.197061 0.353003
vt 0.871943 0.749979
vt 0.224548 0.310561
vt 0.884936 0.798889
vt 0.087641 0.287912
vt 0.856549 0.789222
vt 0.220550 0.310561
vt 0.087641 0.287912
vt 0.064649 0.411306
vt 0.871943 0.853377
vt 0.197061 0.353003
vt 0.119949 0.122061
vt 0.041657 0.411306
vt 0.871943 0.804466
vt 0.856549 0.838132
vt 0.129756 0.122061
vt 0.064649 0.287912
vt 0.884936 0.847799
vt 0.224548 0.310561
vt 0.110633 0.287912
vt 0.226955 0.353003
vt 0.041657 0.411306
vt 0.871943 0.798889
vt 0.228955 0.353003
vt 0.770329 0.717005
vt 0.155544 0.130423
vt 0.872700 0.798889
vt 0.884179 0.847799
vt 0.770329 0.730890
vt 0.155544 0.181022
vt 0.226548 0.310561
vt 0.806574 0.717005
vt 0.140622 0.287912
vt 0.886345 0.833575
vt 0.142683 0.130423
vt 0.806574 0.730890
vt 0.800770 0.841975
vt 0.170611 0.370432
vt 0.142683 0.181022
vt 0.823814 0.691648
vt 0.125628 0.287912
vt 0.886345 0.851518
vt 0.158760 0.130423
vt 0.823814 0.677762
vt 0.800770 0.859918
vt 0.155617 0.370432
vt 0.158760 0.181022
vt 0.124852 0.122061
vt 0.789334 0.717005
vt 0.872700 0.804466
vt 0.139467 0.130423
vt 0.857306 0.838132
vt 0.124852 0.122061
vt 0.789334 0.730890
vt 0.139467 0.181022
vt 0.901186 0.705274
vt 0.872700 0.853377
vt 0.152329 0.130423
vt 0.199060 0.353003
vt 0.857306 0.789222
vt 0.901186 0.719160
vt 0.152329 0.181022
vt 0.222549 0.310561
vt 0.886345 0.851518
vt 0.901186 0.705274
vt 0.110633 0.411306
vt 0.145898 0.130423
vt 0.901186 0.719160
vt 0.857126 0.858863
vt 0.140622 0.287912
vt 0.145898 0.181022
vt 0.886345 0.833575
vt 0.125628 0.411306
vt 0.822049 0.717005
vt 0.161975 0.130423
vt 0.822049 0.730890
vt 0.857126 0.840921
vt 0.155617 0.287912
vt 0.161975 0.181022
vt 0.754853 0.717005
vt 0.195062 0.353003
vt 0.136252 0.130423
vt 0.872700 0.749979
vt 0.222549 0.310561
vt 0.884179 0.798889
vt 0.754853 0.730890
vt 0.136252 0.181022
vt 0.887227 0.851518
vt 0.879785 0.801678
vt 0.149114 0.130423
vt 0.856243 0.858863
vt 0.875392 0.801678
vt 0.149114 0.181022
vt 0.887227 0.833575
vt 0.879785 0.833576
vt 0.158760 0.130423
vt 0.856243 0.840921
vt 0.875392 0.833576
vt 0.158760 0.181022
vt 0.139467 0.130423
vt 0.872700 0.830244
vt 0.872700 0.747190
vt 0.884179 0.796100
vt 0.139467 0.181022
vt 0.872700 0.844130
vt 0.879785 0.747190
vt 0.874590 0.830244
vt 0.871638 0.747190
vt 0.885242 0.796100
vt 0.875392 0.747190
vt 0.874590 0.844130
vt 0.152329 0.130423
vt 0.800770 0.841975
vt 0.872700 0.801678
vt 0.884179 0.850588
vt 0.152329 0.181022
vt 0.800770 0.855861
vt 0.885462 0.833575
vt 0.145898 0.130423
vt 0.801652 0.841975
vt 0.889856 0.833575
vt 0.145898 0.181022
vt 0.885462 0.801678
vt 0.885462 0.851518
vt 0.155544 0.130423
vt 0.801652 0.859918
vt 0.889856 0.801678
vt 0.155544 0.181022
vt 0.885242 0.850588
vt 0.875392 0.801678
vt 0.798881 0.855861
vt 0.879785 0.801678
vt 0.798881 0.841975
vt 0.871638 0.801678
vt 0.872700 0.801678
vt 0.142683 0.130423
vt 0.879170 0.847461
vt 0.857306 0.840921
vt 0.142683 0.181022
vt 0.879170 0.833576
vt 0.872700 0.856165
vt 0.877281 0.833576
vt 0.149114 0.130423
vt 0.857306 0.786433
vt 0.877281 0.847461
vt 0.149114 0.181022
vt 0.856243 0.840921
vt 0.879785 0.796100
vt 0.877281 0.833576
vt 0.871638 0.801678
vt 0.884179 0.796100
vt 0.877281 0.847461
vt 0.856243 0.786433
vt 0.875392 0.847461
vt 0.879785 0.850588
vt 0.871638 0.856165
vt 0.875392 0.833576
vt 0.884179 0.850588
vt 0.598240 0.190988
vt 0.598240 0.190988
vt 0.598240 0.190988
vt 0.810057 0.844763
vt 0.598240 0.190988
vt 0.810435 0.844763
vt 0.810057 0.841975
vt 0.874590 0.833033
vt 0.810435 0.841975
s 0
usemtl Материал.001
f 66/215/1 63/206/1 64/209/1 65/212/1
f 67/218/2 58/191/2 57/188/2 68/221/2
f 6/16/3 2/4/3 13/37/3 16/46/3
f 14/42/4 15/45/4 11/32/4 10/28/4
f 4/10/5 8/22/5 15/43/5 14/40/5
f 22/64/2 23/67/2 5/13/2 1/1/2
f 65/213/2 60/197/2 59/194/2 66/216/2
f 8/23/1 29/97/1 43/148/1 15/44/1
f 22/65/1 1/2/1 81/260/1 91/296/1
f 97/320/2 103/342/2 101/336/2 95/312/2
f 29/97/6 30/99/6 44/150/6 43/148/6
f 21/61/1 32/104/1 33/108/1 20/58/1
f 78/251/7 11/31/7 37/124/7 100/332/7
f 30/99/8 6/17/8 16/47/8 44/150/8
f 96/316/3 39/132/3 49/164/3 48/161/3 26/85/3 95/313/3
f 20/59/2 25/79/2 24/73/2 21/62/2
f 17/49/1 85/272/1 84/269/1 3/7/1
f 94/308/4 79/254/4 82/263/4 92/300/4 118/386/4 121/395/4 123/401/4 120/392/4
f 78/252/4 100/333/4 106/351/4 108/357/4 115/377/4 110/363/4 86/276/4 83/266/4
f 97/321/7 95/314/7 26/86/7 27/91/7
f 41/143/4 42/147/4 126/408/4 125/407/4
f 82/264/1 9/25/1 31/101/1 92/301/1
f 25/80/2 26/87/2 48/162/2 47/158/2
f 73/236/1 71/230/1 72/233/1 76/245/1
f 48/163/7 49/165/7 50/167/7 47/159/7
f 23/68/2 24/74/2 46/155/2 45/152/2
f 24/75/3 41/140/3 51/170/3 46/156/3
f 80/257/5 81/261/5 1/3/5 5/14/5
f 26/88/4 25/81/4 55/182/4 56/185/4
f 46/157/7 51/171/7 52/173/7 45/153/7
f 56/186/7 55/183/7 59/195/7 60/198/7
f 54/179/7 53/176/7 57/189/7 58/192/7
f 24/76/4 23/69/4 53/177/4 54/180/4
f 88/284/5 35/116/5 71/231/5 73/237/5 74/239/5 70/227/5 38/128/5 98/324/5 97/322/5 27/92/5 18/52/5 87/280/5
f 65/214/3 64/210/3 34/112/3 90/292/3 89/288/3 19/55/3 26/89/3 56/187/3 60/199/3
f 86/277/3 85/273/3 17/50/3 28/94/3 99/328/3 100/334/3 37/125/3 69/224/3 75/242/3 76/246/3 72/234/3 36/120/3
f 2/5/7 4/11/7 14/41/7 13/38/7
f 92/302/5 31/102/5 61/200/5 68/222/5 57/190/5 53/178/5 23/70/5 22/66/5 91/297/5
f 15/45/4 43/149/4 44/151/4 16/48/4 13/39/4 14/42/4 10/28/4 36/121/4 35/117/4 34/113/4 33/109/4 32/105/4 31/103/4 9/26/4 12/34/4 42/144/4 41/141/4 40/136/4 39/133/4 38/129/4 37/126/4 11/32/4
f 25/82/5 20/60/5 33/110/5 63/207/5 66/217/5 59/196/5 55/184/5
f 75/243/2 74/240/2 73/238/2 76/247/2
f 25/83/5 47/160/5 50/168/5 40/137/5
f 23/71/5 45/154/5 52/174/5 42/145/5 94/309/5 93/304/5
f 7/19/2 28/95/2 17/51/2 3/8/2
f 91/298/2 81/262/2 80/258/2 93/305/2 119/389/2 124/404/2 122/398/2 117/383/2
f 98/325/4 96/317/4 102/339/4 104/345/4
f 75/244/7 69/225/7 70/228/7 74/241/7
f 90/293/4 88/285/4 112/368/4 114/374/4
f 89/289/1 87/281/1 18/53/1 19/56/1
f 120/393/7 123/402/7 124/405/7 119/390/7
f 93/306/3 94/310/3 120/394/3 119/391/3
f 2/6/4 6/18/4 30/100/4 29/98/4 8/24/4 4/12/4
f 92/303/3 91/299/3 117/384/3 118/387/3
f 94/311/7 42/146/7 12/35/7 79/255/7
f 85/274/5 86/278/5 110/364/5 109/360/5
f 67/219/3 62/203/3 32/106/3 21/63/3 24/77/3 54/181/3 58/193/3
f 116/380/3 115/378/3 108/358/3 107/354/3
f 68/223/1 61/201/1 62/204/1 67/220/1
f 86/279/1 36/122/1 10/29/1 83/267/1
f 10/30/3 11/33/3 78/253/3 83/268/3
f 3/9/3 84/270/3 77/248/3 7/20/3
f 35/118/1 88/286/1 90/294/1 34/114/1
f 12/36/5 9/27/5 82/265/5 79/256/5
f 25/84/7 40/138/7 41/142/7 24/78/7
f 7/21/7 77/249/7 99/329/7 28/96/7
f 103/343/7 104/346/7 102/340/7 101/337/7
f 38/130/7 39/134/7 96/318/7 98/326/7
f 93/307/7 80/259/7 5/15/7 23/72/7
f 97/323/3 98/327/3 104/347/3 103/344/3
f 96/319/5 95/315/5 101/338/5 102/341/5
f 109/361/1 110/365/1 115/379/1 116/381/1
f 124/406/5 123/403/5 121/396/5 122/399/5
f 100/335/5 99/330/5 105/348/5 106/352/5
f 113/371/1 114/375/1 112/369/1 111/366/1
f 26/90/2 19/57/2 18/54/2 27/93/2
f 105/349/7 107/355/7 108/359/7 106/353/7
f 89/290/2 113/372/2 111/366/2 87/282/2
f 89/291/5 90/295/5 114/376/5 113/373/5
f 88/287/3 87/283/3 111/367/3 112/370/3
f 117/385/1 122/400/1 121/397/1 118/388/1
f 84/271/2 85/275/2 109/362/2 116/382/2 107/356/2 105/350/2 99/331/2 77/250/2
f 52/175/4 51/172/4 127/409/4 128/411/4
f 42/147/4 52/175/4 128/411/4 126/408/4
f 51/172/4 41/143/4 125/407/4 127/409/4
f 40/139/4 50/169/4 49/166/4 39/135/4
f 34/115/4 64/211/4 63/208/4 33/111/4
f 128/412/4 127/410/4 131/413/4 135/415/4
f 62/205/4 61/202/4 133/414/4 32/107/4
f 36/123/4 72/235/4 71/232/4 35/119/4
f 38/131/4 70/229/4 69/226/4 37/127/4
l 31 133
l 134 129
l 135 138
l 137 138
l 130 131
l 130 135
l 136 132
