# Blender 3.4.1
# www.blender.org
mtllib GUNGUNGUNGUNGUNGUNGUNGUGNUGNUGNUNGUGNGUNGUNGUNGUGUNGUNGUGNUGNUGNGUNGUNGUNGUGNUGNGUNGUGNUGNUGNGUNGUNGUNGUGNUGNGUNGUNGUGNGUNGUNGNUGNUNGUNGUGNUGNUNG.mtl
o Cube
v 0.535723 0.857109 -2.109179
v -0.390793 1.000000 -2.147261
v 0.535723 0.857109 -1.083502
v -0.390794 1.000000 -1.015321
v 0.806678 -0.565014 -4.145598
v 0.372833 0.889130 -2.691454
v -0.372834 0.889130 -2.691454
v -0.806678 -0.565014 -4.145598
v 0.892570 -0.570279 -2.109179
v 0.704342 -1.000000 -2.256468
v -0.704342 -1.000000 -2.256468
v -0.901104 -0.604415 -2.144367
v 1.000000 -0.704342 -4.256468
v 0.704342 -1.000000 -3.960810
v -0.704342 -1.000000 -3.960810
v -1.000000 -0.704342 -4.256468
v 0.650396 -0.889984 -1.218576
v 0.892570 -0.570279 -1.358674
v -0.901104 -0.604415 -1.329458
v -0.650396 -0.889984 -1.218576
v 0.704342 -1.000000 -0.657576
v 0.928292 -0.713170 -0.657576
v -0.928293 -0.713170 -0.659585
v -0.704342 -1.000000 -0.659585
v -0.553883 -0.882525 -1.248278
v -0.777833 -0.595695 -1.248278
v -0.553883 -0.882525 -0.659585
v -0.777833 -0.595695 -0.659585
v -0.704342 -1.000000 -0.660472
v -0.928293 -0.713170 -0.659649
v -0.553883 -0.882525 -0.660472
v -0.777833 -0.595695 -0.659649
v 0.800386 -0.613303 -1.242471
v 0.576435 -0.900133 -1.242471
v 0.800386 -0.613303 -0.657576
v 0.576435 -0.900133 -0.657576
v 0.928292 -0.713170 -0.656107
v 0.704342 -1.000000 -0.657661
v 0.390793 1.000000 -2.147261
v 0.390793 1.000000 -1.015321
v 0.928292 -0.713170 -2.256468
v 0.807057 -0.687137 -1.232166
v 0.500000 1.000000 -2.256468
v -0.527189 0.891246 -2.144367
v 0.412611 0.889984 -0.923916
v -0.527189 0.891246 -1.041124
v -0.412611 0.889984 -0.923916
v -0.500000 1.000000 -2.256468
v -0.807057 -0.687137 -1.232166
v -0.928292 -0.713170 -2.256468
v -1.000000 -0.675884 -4.256468
v -0.500000 1.000000 -2.580584
v 0.500000 1.000000 -2.580584
v 1.000000 -0.675884 -4.256468
v -0.688179 -0.400181 -4.174515
v -0.294886 0.918047 -2.856287
v 0.294886 0.918047 -2.856287
v 0.688179 -0.400181 -4.174515
v 0.628796 0.806163 -2.037181
v 0.628796 0.806163 -1.170215
v 0.950718 -0.481527 -2.037181
v 0.950718 -0.481527 -1.418455
v 0.326358 1.079601 -2.082826
v -0.326358 1.079601 -2.082826
v 0.326358 1.079601 -1.079756
v -0.326358 1.079601 -1.079756
v -0.607034 0.849504 -1.137182
v -0.607034 0.849504 -2.064608
v -0.942261 -0.491404 -1.395682
v -0.942261 -0.491404 -2.064608
v 0.500000 1.000000 -0.906114
v -0.500000 1.000000 -0.906114
v -0.704342 -1.000000 -1.236378
v -0.928292 -0.713170 -1.236378
v 0.928292 -0.713170 -1.236378
v 0.704342 -1.000000 -1.236378
v 0.500000 0.980945 -0.798109
v -0.500000 0.980945 -0.798109
v 0.928292 -0.732224 -1.128373
v 0.704342 -1.019055 -1.128373
v -0.704342 -1.019055 -1.128373
v -0.928293 -0.732224 -1.128373
v 0.412611 0.870929 -0.815911
v -0.412611 0.870929 -0.815911
v 0.807057 -0.706192 -1.124161
v 0.650396 -0.909038 -1.110571
v -0.650396 -0.909038 -1.110571
v -0.807057 -0.706192 -1.124161
v 0.611334 0.876012 -2.109179
v 0.611334 0.876012 -1.083502
v 0.968181 -0.551376 -2.109179
v 0.968181 -0.551376 -1.358674
v -0.587690 0.926881 -1.041124
v -0.587690 0.926881 -2.144367
v -0.961605 -0.568781 -1.329458
v -0.961605 -0.568781 -2.144367
v 0.611334 0.876012 -2.109179
v 0.611334 0.876012 -1.083502
v 0.968181 -0.551376 -2.109179
v 0.968181 -0.551376 -1.358674
v 0.611334 0.876012 -2.109179
v 0.611334 0.876012 -1.083502
v 0.968181 -0.551376 -2.109179
v 0.968181 -0.551376 -1.358674
v -0.587690 0.926881 -1.041124
v -0.587690 0.926881 -2.144367
v -0.961605 -0.568781 -1.329458
v -0.961605 -0.568781 -2.144367
v 0.390793 1.079601 -2.147261
v -0.390793 1.079601 -2.147261
v 0.390793 1.079601 -1.015321
v -0.390794 1.079601 -1.015321
v -0.806678 -0.468139 -4.242473
v -0.372834 0.986005 -2.788329
v 0.372833 0.986005 -2.788329
v 0.806678 -0.468139 -4.242473
vn -0.0000 -0.0000 -1.0000
vn -0.0000 1.0000 -0.0000
vn -0.0000 -1.0000 -0.0000
vn -0.9689 0.2451 0.0339
vn -0.0000 -0.1585 0.9874
vn 0.5075 0.8617 -0.0000
vn -1.0000 -0.0000 -0.0000
vn -0.0000 -0.7071 -0.7071
vn 0.0446 -0.1783 0.9830
vn 0.7494 -0.6620 0.0129
vn -0.7494 -0.6620 0.0129
vn -0.7882 -0.6154 -0.0000
vn 0.7882 -0.6154 -0.0000
vn 0.9689 0.2451 0.0339
vn -0.6154 -0.7882 -0.0000
vn -0.6154 0.7882 -0.0000
vn 0.6154 -0.7882 -0.0000
vn 0.0014 -0.0018 1.0000
vn 0.6154 0.7882 -0.0000
vn 0.9701 0.2425 -0.0000
vn -0.9701 0.2425 -0.0000
vn -0.0000 0.7071 -0.7071
vn -0.0000 0.7071 0.7071
vn 0.9785 0.1460 0.1460
vn -0.9785 0.1460 0.1460
vn 0.2425 -0.9701 -0.0000
vn -0.2425 0.9701 -0.0000
vn 1.0000 -0.0000 -0.0000
vn -0.0000 -0.0000 1.0000
vn -0.0971 -0.1649 0.9815
vn -0.5075 -0.8617 -0.0000
vn -0.9712 -0.2348 -0.0414
vn -0.0913 -0.0434 0.9949
vn 0.0913 -0.0434 0.9949
vn -0.0000 -0.9848 -0.1737
vn 0.2125 -0.9623 -0.1698
vn 0.9712 -0.2348 -0.0414
vn -0.0000 -0.1597 0.9872
vn 0.0116 -0.1877 0.9822
vn -0.0116 -0.1877 0.9822
vn -0.2125 -0.9623 -0.1698
vn -0.0000 0.9848 0.1737
vn 0.9001 0.4291 0.0757
vn 0.9712 0.2348 0.0414
vn -0.9001 0.4291 0.0757
vn -0.9712 0.2348 0.0414
vt 0.546691 0.427671
vt 0.238349 0.614326
vt 0.489821 0.573374
vt 0.256211 0.837025
vt 0.546691 0.427671
vt 0.238349 0.614326
vt 0.489821 0.573374
vt 0.256211 0.837025
vt 0.480776 0.326904
vt 0.050085 0.848870
vt 0.548175 0.321925
vt 0.231853 0.835442
vt 0.548175 0.255319
vt 0.231853 0.655813
vt 0.480776 0.250339
vt 0.050085 0.642385
vt 0.480532 0.427671
vt 0.059926 0.614326
vt 0.556114 0.298972
vt 0.251633 0.688614
vt 0.556114 0.475058
vt 0.250320 0.715376
vt 0.478950 0.520371
vt 0.055659 0.864326
vt 0.411957 0.250000
vt 0.125000 0.500000
vt 0.001633 0.651657
vt 0.474318 0.334971
vt 0.343071 0.298972
vt 0.161957 0.536957
vt 0.038590 0.688614
vt 0.343071 0.475058
vt 0.161957 0.713043
vt 0.037278 0.715376
vt 0.411957 0.000000
vt 0.474318 0.613071
vt 0.125000 0.750000
vt 0.000320 0.752333
vt 0.371869 0.306250
vt 0.046390 0.593232
vt 0.388931 0.541902
vt 0.480532 0.427671
vt 0.059926 0.614326
vt 0.478950 0.520371
vt 0.055659 0.864326
vt 0.371869 0.472446
vt 0.046390 0.759428
vt 0.388931 0.708098
vt 0.000000 0.000000
vt 0.000000 0.000000
vt 0.000000 0.000000
vt 0.000000 0.000000
vt 0.136140 0.568385
vt 0.000000 0.000000
vt 0.171994 0.605342
vt 0.000000 0.000000
vt 0.136140 0.568385
vt 0.000000 0.000000
vt 0.171994 0.605342
vt 0.000000 0.000000
vt 0.250320 0.715376
vt 0.199725 0.704224
vt 0.286174 0.752333
vt 0.235578 0.741181
vt 0.199725 0.704224
vt 0.235578 0.741181
vt 0.000000 0.000000
vt 0.216616 0.231683
vt 0.180762 0.268641
vt 0.000000 0.000000
vt 0.216616 0.231683
vt 0.000000 0.000000
vt 0.180762 0.268641
vt 0.000000 0.000000
vt 0.287487 0.651657
vt 0.251633 0.688614
vt 0.489821 0.377978
vt 0.256211 0.641628
vt 0.489821 0.377978
vt 0.256211 0.641628
vt 0.251633 0.651657
vt 0.287487 0.651657
vt 0.473909 0.427671
vt 0.396815 0.280492
vt 0.071336 0.567474
vt 0.413877 0.516144
vt 0.553314 0.427671
vt 0.489821 0.350676
vt 0.548273 0.520371
vt 0.242616 0.864326
vt 0.594238 0.289294
vt 0.268759 0.576276
vt 0.548273 0.520371
vt 0.242616 0.864326
vt 0.594238 0.489402
vt 0.268759 0.776384
vt 0.489821 0.600676
vt 0.553314 0.520371
vt 0.396815 0.498204
vt 0.413877 0.733856
vt 0.071336 0.785186
vt 0.250320 0.752333
vt 0.286174 0.752333
vt 0.473909 0.520371
vt 0.415515 0.000000
vt 0.475637 0.613071
vt 0.475637 0.242272
vt 0.568337 0.520371
vt 0.553314 0.535394
vt 0.553314 0.242272
vt 0.568337 0.427671
vt 0.553314 0.412648
vt 0.553314 0.334971
vt 0.415515 0.250000
vt 0.475637 0.334971
vt 0.924850 0.134564
vt 0.058579 0.656393
vt 0.866228 0.800920
vt 0.223358 0.676362
vt 0.755115 0.800920
vt 0.223358 0.814893
vt 0.696493 0.134564
vt 0.058579 0.834863
vt 0.228306 0.096359
vt 0.229618 0.614326
vt 0.228306 0.096359
vt 0.229618 0.614326
vt 0.067344 0.096359
vt 0.068657 0.614326
vt 0.067344 0.096359
vt 0.068657 0.614326
vt 0.254898 0.139769
vt 0.256211 0.657737
vt 0.254898 0.302948
vt 0.256211 0.820916
vt 0.254898 0.139769
vt 0.256211 0.657737
vt 0.254898 0.302948
vt 0.256211 0.820916
vt 0.231632 0.346359
vt 0.232944 0.864326
vt 0.231632 0.346359
vt 0.232944 0.864326
vt 0.064018 0.346359
vt 0.065331 0.864326
vt 0.064018 0.346359
vt 0.065331 0.864326
vt 0.553314 0.427671
vt 0.489821 0.350676
vt 0.282459 0.551330
vt 0.489821 0.600676
vt 0.553314 0.520371
vt 0.282459 0.801330
vt 0.556114 0.475058
vt 0.250320 0.715376
vt 0.000000 0.000000
vt 0.032459 0.764373
vt 0.375000 0.713043
vt 0.286174 0.752333
vt 0.000000 0.000000
vt 0.473909 0.520371
vt 0.410854 0.750000
vt 0.068313 0.801330
vt 0.000000 0.000000
vt 0.287487 0.651657
vt 0.473909 0.427671
vt 0.410854 0.500000
vt 0.068313 0.551330
vt 0.556114 0.298972
vt 0.000000 0.000000
vt 0.251633 0.688614
vt 0.032459 0.588287
vt 0.375000 0.536957
vt 0.282459 0.551330
vt 0.282459 0.801330
vt 0.410854 0.500000
vt 0.068313 0.551330
vt 0.032459 0.588287
vt 0.375000 0.536957
vt 0.032459 0.764373
vt 0.375000 0.713043
vt 0.410854 0.750000
vt 0.068313 0.801330
vt 0.268759 0.576276
vt 0.268759 0.776384
vt 0.071336 0.567474
vt 0.413877 0.516144
vt 0.046390 0.593232
vt 0.388931 0.541902
vt 0.046390 0.759428
vt 0.388931 0.708098
vt 0.413877 0.733856
vt 0.071336 0.785186
vt 0.238349 0.614326
vt 0.607139 0.500000
vt 0.238349 0.614326
vt 0.607139 0.500000
vt 0.059926 0.614326
vt 0.428715 0.500000
vt 0.059926 0.614326
vt 0.428715 0.500000
vt 0.242616 0.864326
vt 0.611406 0.750000
vt 0.242616 0.864326
vt 0.611406 0.750000
vt 0.055659 0.864326
vt 0.424448 0.750000
vt 0.055659 0.864326
vt 0.424448 0.750000
vt 0.607139 0.500000
vt 0.607139 0.500000
vt 0.428715 0.500000
vt 0.428715 0.500000
vt 0.607139 0.500000
vt 0.238349 0.614326
vt 0.607139 0.500000
vt 0.238349 0.614326
vt 0.428715 0.500000
vt 0.059926 0.614326
vt 0.428715 0.500000
vt 0.059926 0.614326
vt 0.611406 0.750000
vt 0.242616 0.864326
vt 0.611406 0.750000
vt 0.242616 0.864326
vt 0.424448 0.750000
vt 0.055659 0.864326
vt 0.424448 0.750000
vt 0.055659 0.864326
vt 0.256211 0.641628
vt 0.256211 0.837025
vt 0.256211 0.641628
vt 0.256211 0.837025
vt 0.050085 0.642385
vt 0.231853 0.655813
vt 0.231853 0.835442
vt 0.050085 0.848870
s 0
usemtl Material
f 16/35/1 51/105/1 54/114/1 13/25/1
f 43/87/2 53/111/2 52/108/2 48/98/2
f 11/21/3 10/19/3 76/169/3 73/154/3
f 50/104/4 48/98/4 52/109/4 51/106/4 16/36/4
f 17/39/5 42/84/5 45/91/5 47/95/5 49/99/5 20/46/5
f 14/29/3 10/19/3 11/21/3 15/32/3
f 46/94/6 44/90/6 94/204/6 93/202/6
f 2/4/7 4/8/7 112/233/7 110/231/7
f 5/10/8 8/16/8 113/234/8 116/237/8
f 3/6/9 18/43/9 92/200/9 90/196/9
f 14/30/8 15/33/8 16/37/8 13/26/8
f 10/20/10 14/31/10 13/27/10 41/81/10
f 15/34/11 11/22/11 50/102/11 16/38/11
f 11/22/12 73/155/12 74/159/12 50/103/12
f 76/171/13 10/20/13 41/82/13 75/165/13
f 13/28/14 54/115/14 53/112/14 43/87/14 41/83/14
f 75/164/15 22/50/15 35/72/15 33/67/15
f 74/159/12 73/155/12 29/61/12 30/63/12
f 26/55/12 25/53/12 27/57/12 28/59/12
f 73/156/16 24/52/16 27/58/16 25/54/16
f 23/51/17 74/160/17 26/56/17 28/60/17
f 30/64/18 29/62/18 31/65/18 32/66/18
f 34/69/13 33/68/13 35/71/13 36/73/13
f 22/50/1 21/49/1 36/74/1 35/72/1
f 21/49/19 76/170/19 34/70/19 36/74/19
f 76/171/13 75/165/13 37/75/13 38/76/13
f 3/5/20 1/1/20 43/87/20 71/148/20
f 9/17/20 18/42/20 75/166/20 41/83/20
f 1/1/20 9/17/20 41/83/20 43/87/20
f 18/42/20 3/5/20 71/148/20 75/166/20
f 2/3/2 39/77/2 43/88/2 48/97/2
f 40/79/2 4/7/2 72/151/2 71/149/2
f 4/7/2 2/3/2 48/97/2 72/151/2
f 39/77/2 40/79/2 71/149/2 43/88/2
f 44/89/21 46/93/21 72/152/21 48/98/21
f 19/44/21 12/23/21 50/104/21 74/161/21
f 12/23/21 44/89/21 48/98/21 50/104/21
f 46/93/21 19/44/21 74/161/21 72/152/21
f 7/13/22 8/15/22 51/107/22 52/110/22
f 6/11/22 7/13/22 52/110/22 53/113/22
f 5/9/22 6/11/22 53/113/22 54/115/22
f 8/15/22 5/9/22 54/115/22 51/107/22
f 56/118/22 57/120/22 58/122/22 55/116/22
f 7/14/23 6/12/23 115/236/23 114/235/23
f 6/12/24 5/10/24 116/237/24 115/236/24
f 8/16/25 7/14/25 114/235/25 113/234/25
f 61/128/20 59/124/20 60/126/20 62/130/20
f 18/43/26 9/18/26 91/198/26 92/200/26
f 9/18/1 1/2/1 89/194/1 91/198/1
f 1/2/27 3/6/27 90/196/27 89/194/27
f 63/132/2 64/134/2 66/138/2 65/136/2
f 39/78/1 2/4/1 110/231/1 109/230/1
f 40/80/28 39/78/28 109/230/28 111/232/28
f 4/8/29 40/80/29 111/232/29 112/233/29
f 68/142/21 70/146/21 69/144/21 67/140/21
f 19/45/30 46/94/30 93/202/30 95/206/30
f 12/24/31 19/45/31 95/206/31 96/208/31
f 44/90/1 12/24/1 96/208/1 94/204/1
f 45/92/32 42/85/32 85/186/32 83/184/32
f 20/48/33 49/100/33 74/162/33 73/158/33
f 42/86/34 17/41/34 76/173/34 75/167/34
f 73/157/35 76/172/35 80/178/35 81/180/35
f 74/162/36 49/100/36 88/192/36 82/182/36
f 49/101/37 47/96/37 84/185/37 88/193/37
f 84/185/38 83/184/38 77/174/38 78/175/38
f 83/184/39 85/186/39 79/177/39 77/174/39
f 86/188/38 87/190/38 81/180/38 80/178/38
f 88/193/40 84/185/40 78/175/40 82/183/40
f 42/86/41 75/167/41 79/176/41 85/187/41
f 47/96/35 45/92/35 83/184/35 84/185/35
f 17/40/42 20/47/42 87/190/42 86/188/42
f 76/173/43 17/41/43 86/189/43 80/179/43
f 75/168/44 71/150/44 77/174/44 79/177/44
f 71/150/42 72/153/42 78/175/42 77/174/42
f 20/48/45 73/158/45 81/181/45 87/191/45
f 72/153/46 74/163/46 82/183/46 78/175/46
f 98/211/2 97/210/2 89/195/2 90/197/2
f 99/212/2 100/213/2 92/201/2 91/199/2
f 97/210/2 99/212/2 91/199/2 89/195/2
f 100/213/2 98/211/2 90/197/2 92/201/2
f 106/224/2 105/222/2 93/203/2 94/205/2
f 107/226/2 108/228/2 96/209/2 95/207/2
f 108/228/2 106/224/2 94/205/2 96/209/2
f 105/222/2 107/226/2 95/207/2 93/203/2
f 102/216/2 101/214/2 97/210/2 98/211/2
f 103/218/2 104/220/2 100/213/2 99/212/2
f 101/214/2 103/218/2 99/212/2 97/210/2
f 104/220/2 102/216/2 98/211/2 100/213/2
f 60/127/20 59/125/20 101/215/20 102/217/20
f 61/129/20 62/131/20 104/221/20 103/219/20
f 59/125/20 61/129/20 103/219/20 101/215/20
f 62/131/20 60/127/20 102/217/20 104/221/20
f 68/143/21 67/141/21 105/223/21 106/225/21
f 69/145/21 70/147/21 108/229/21 107/227/21
f 70/147/21 68/143/21 106/225/21 108/229/21
f 67/141/21 69/145/21 107/227/21 105/223/21
f 64/135/2 63/133/2 109/230/2 110/231/2
f 65/137/2 66/139/2 112/233/2 111/232/2
f 66/139/2 64/135/2 110/231/2 112/233/2
f 63/133/2 65/137/2 111/232/2 109/230/2
f 56/119/22 55/117/22 113/234/22 114/235/22
f 57/121/22 56/119/22 114/235/22 115/236/22
f 58/123/22 57/121/22 115/236/22 116/237/22
f 55/117/22 58/123/22 116/237/22 113/234/22
