# Blender 3.4.1
# www.blender.org
mtllib крыша.mtl
o Куб.001
v -1.665880 2.619476 2.201602
v -1.665880 2.619476 1.966496
v -1.665880 2.619476 1.731390
v -1.665880 2.619476 1.496285
v -1.665880 2.619476 -2.030303
v -1.665880 2.619476 -2.265409
v 1.665880 2.619476 -2.265409
v 1.665880 2.619476 -2.030303
v 1.665880 2.619476 1.496284
v 1.665880 2.619476 1.731390
v 1.855849 2.619476 1.496284
v 1.855849 2.619476 1.731390
v -1.855849 2.619476 2.201602
v -1.855849 2.619476 1.966496
v -1.855849 2.619476 1.731390
v -1.855849 2.619476 1.496285
v 1.855849 2.619476 -2.265409
v 1.855849 2.619476 -2.030303
v -1.855849 2.619476 -2.030303
v -1.855849 2.619476 -2.265409
v 1.665880 2.619476 1.966496
v 1.665880 2.619476 2.201602
v 1.855849 2.619476 1.966496
v 1.855849 2.619476 2.201602
v 1.665880 2.999414 1.966496
v 1.665880 2.999414 2.201602
v 1.855849 2.999414 1.966496
v 1.855849 2.999414 2.201602
v -1.665880 2.809445 2.201602
v -1.665880 2.809445 1.966496
v -1.665880 2.809445 1.731390
v -1.665880 2.809445 1.496285
v -1.665880 2.809445 -2.030303
v -1.665880 2.809445 -2.265409
v 1.665880 2.999414 -2.265409
v 1.665880 2.999414 -2.030303
v 1.665880 2.999414 1.496284
v 1.665880 2.999414 1.731390
v 1.855849 2.999414 1.496284
v 1.855849 2.999414 1.731390
v -1.855849 2.999414 2.201602
v -1.855849 2.999414 1.966496
v -1.855849 2.999414 1.731390
v -1.855849 2.999414 1.496285
v 1.855849 2.999414 -2.265409
v 1.855849 2.999414 -2.030303
v -1.855849 2.999414 -2.030303
v -1.855849 2.999414 -2.265409
v 1.665971 2.619476 1.966496
v 1.665971 2.809445 1.966496
v -1.665880 2.619476 2.201602
v -1.665880 2.809445 2.201602
v 1.665971 2.619476 2.201602
v 1.665971 2.809445 2.201602
v -1.665880 2.809445 2.676364
v 1.665971 2.809445 2.676364
v -1.665880 2.809445 -2.739603
v 1.665971 2.809445 -2.739603
v 1.664986 2.809445 -2.030303
v 1.664986 2.809445 -2.265409
v 1.664986 2.999414 -2.030303
v 1.664986 2.999414 -2.265409
v 1.665747 2.809445 1.731390
v 1.665747 2.809445 1.496285
v 1.665747 2.999414 1.731390
v 1.665747 2.999414 1.496285
v 1.663720 2.809445 2.201602
v 1.663720 2.809445 1.966496
v 1.663720 2.999414 2.201602
v 1.663720 2.999414 1.966496
v 1.665971 2.619476 2.676364
v -1.665880 2.619476 2.676364
v 1.665971 2.619476 -2.739603
v -1.665880 2.619476 -2.739603
v -1.512193 2.619476 2.426931
v 1.512284 2.619476 2.426931
v 1.512284 2.619476 -2.490170
v -1.512193 2.619476 -2.490170
vn 1.0000 -0.0000 -0.0000
vn -1.0000 -0.0000 -0.0000
vn -0.0000 -0.0000 -1.0000
vn -0.0000 1.0000 -0.0000
vn -0.0000 -0.0000 1.0000
vn -0.0000 -1.0000 -0.0000
vt 0.932025 0.623332
vt 0.000000 0.000000
vt 0.966466 0.837164
vt 0.131620 0.448212
vt 0.813791 0.863179
vt 0.392661 0.513995
vt 0.828703 0.623332
vt 0.813791 0.863179
vt 0.399351 0.513995
vt 0.794262 0.837302
vt 0.815547 0.863179
vt 0.379282 0.513995
vt 0.863144 0.623332
vt 0.806767 0.863179
vt 0.385971 0.513995
vt 0.863144 0.623332
vt 0.808523 0.863179
vt 0.345833 0.513995
vt 0.887706 0.850189
vt 0.819058 0.850241
vt 0.352523 0.513995
vt 0.867237 0.850189
vt 0.817302 0.850241
vt 0.867237 0.850189
vt 0.339143 0.513995
vt 0.879519 0.850189
vt 0.345833 0.513995
vt 0.784915 0.850241
vt 0.863144 0.850189
vt 0.883612 0.850189
vt 0.781794 0.850241
vt 0.791159 0.850241
vt 0.932025 0.610393
vt 0.812035 0.850241
vt 0.788037 0.850241
vt 0.966466 0.850103
vt 0.813791 0.850241
vt 0.828703 0.610393
vt 0.775550 0.850241
vt 0.813791 0.850241
vt 0.772429 0.850241
vt 0.794262 0.850241
vt 0.815547 0.850241
vt 0.883612 0.850189
vt 0.788037 0.850241
vt 0.819058 0.863179
vt 0.784915 0.850241
vt 0.871331 0.850189
vt 0.817302 0.863179
vt 0.893950 0.850189
vt 0.863144 0.610393
vt 0.806767 0.850241
vt 0.890828 0.850189
vt 0.863144 0.610393
vt 0.808523 0.850241
vt 0.592874 0.513884
vt 0.875425 0.850189
vt 0.599564 0.513884
vt 0.875425 0.850189
vt 0.871331 0.850189
vt 0.890828 0.850189
vt 0.879519 0.850189
vt 0.887706 0.850189
vt 0.592874 0.747150
vt 0.810279 0.863179
vt 0.875425 0.959039
vt 0.599564 0.747150
vt 0.808523 0.863179
vt 0.875425 0.959039
vt 0.890828 0.959039
vt 0.810279 0.850241
vt 0.871331 0.959039
vt 0.887706 0.959039
vt 0.808523 0.850241
vt 0.879519 0.959039
vt 0.914805 0.623332
vt 0.000000 0.000000
vt 0.767165 0.486157
vt 0.949246 0.837164
vt 0.094716 0.448212
vt 0.231914 0.492593
vt 0.770928 0.486157
vt 0.392661 0.630629
vt 0.811482 0.623332
vt 0.399351 0.630629
vt 0.777041 0.837302
vt 0.379282 0.630629
vt 0.845923 0.623332
vt 0.385971 0.630629
vt 0.880364 0.623332
vt 0.345833 0.747262
vt 0.887706 0.959039
vt 0.820814 0.863179
vt 0.352523 0.747262
vt 0.819058 0.863179
vt 0.867237 0.959039
vt 0.867237 0.959039
vt 0.339143 0.747262
vt 0.817302 0.863179
vt 0.345833 0.747262
vt 0.815547 0.863179
vt 0.879519 0.959039
vt 0.784915 0.959091
vt 0.863144 0.959039
vt 0.817302 0.850241
vt 0.781794 0.959091
vt 0.815547 0.850241
vt 0.883612 0.959039
vt 0.791159 0.959091
vt 0.897584 0.610393
vt 0.973524 0.850103
vt 0.788037 0.959091
vt 0.932025 0.850103
vt 0.975280 0.850103
vt 0.794262 0.610393
vt 0.775550 0.959091
vt 0.970012 0.850241
vt 0.772429 0.959091
vt 0.759821 0.850241
vt 0.971768 0.850241
vt 0.883612 0.959039
vt 0.788037 0.959091
vt 0.820814 0.850241
vt 0.784915 0.959091
vt 0.819058 0.850241
vt 0.871331 0.959039
vt 0.893950 0.959039
vt 0.971768 0.850189
vt 0.828703 0.610393
vt 0.890828 0.959039
vt 0.897584 0.610393
vt 0.973524 0.850189
vt 0.000000 0.000000
vt 0.168523 0.024995
vt 0.231914 0.006292
vt 0.131620 0.024995
vt 0.000000 0.000000
vt 0.212087 0.403621
vt 0.812035 0.863179
vt 0.000000 0.000000
vt 0.212087 0.479377
vt 0.201618 0.064983
vt 0.212087 0.403621
vt 0.000000 0.000000
vt 0.212087 0.479377
vt 0.166293 0.214815
vt 0.220861 0.479377
vt 0.142746 0.085174
vt 0.196018 0.064983
vt 0.203313 0.479377
vt 0.142746 0.443540
vt 0.158694 0.214815
vt 0.094716 0.024995
vt 0.169941 0.443540
vt 0.142746 0.443540
vt 0.169941 0.085174
vt 0.142746 0.085174
vt 0.131620 0.448212
vt 0.372592 0.513995
vt 0.845923 0.850189
vt 0.880364 0.850189
vt 0.379282 0.513995
vt 0.971768 0.610393
vt 0.372592 0.630629
vt 0.828703 0.850189
vt 0.897584 0.850189
vt 0.973524 0.610393
vt 0.379282 0.630629
vt 0.811482 0.850241
vt 0.399351 0.513995
vt 0.777041 0.610393
vt 0.406041 0.513995
vt 0.794262 0.850241
vt 0.970012 0.610393
vt 0.399351 0.630629
vt 0.759821 0.610393
vt 0.971768 0.610393
vt 0.406041 0.630629
vt 0.914805 0.850103
vt 0.385971 0.513995
vt 0.767165 0.972129
vt 0.949246 0.610393
vt 0.392661 0.513995
vt 0.770928 0.972129
vt 0.897584 0.850103
vt 0.973524 0.610393
vt 0.385971 0.630629
vt 0.932025 0.610393
vt 0.975280 0.610393
vt 0.392661 0.630629
vt 0.203313 0.403621
vt 0.169941 0.443540
vt 0.220861 0.403621
vt 0.169941 0.085174
vt 0.168523 0.448212
vt 0.197136 0.085174
vt 0.131620 0.024995
vt 0.197136 0.443540
vt 0.171193 0.111986
vt 0.171193 0.416728
vt 0.195883 0.111986
vt 0.195883 0.416728
s 0
usemtl Материал
f 23/61/1 27/70/1 28/73/1 24/63/1
f 5/12/1 6/15/1 34/89/1 33/87/1
f 11/28/1 39/103/1 40/106/1 12/31/1
f 3/6/1 4/9/1 32/85/1 31/83/1
f 22/58/2 26/67/2 25/64/2 21/56/2
f 19/50/2 47/127/2 48/130/2 20/53/2
f 9/24/3 37/97/3 39/104/3 11/29/3
f 25/65/4 26/68/4 28/74/4 27/71/4
f 7/18/2 8/21/2 36/94/2 35/91/2
f 13/32/2 41/109/2 42/112/2 14/35/2
f 21/57/3 25/66/3 27/72/3 23/60/3
f 31/84/5 63/169/5 65/173/5 43/115/5 15/38/5 3/7/5
f 22/59/5 24/62/5 28/75/5 26/69/5
f 15/39/2 43/116/2 44/118/2 16/41/2
f 41/110/5 13/33/5 1/1/5 29/76/5 67/179/5 69/185/5
f 9/25/2 10/27/2 38/100/2 37/98/2
f 44/119/3 66/176/3 64/171/3 32/86/3 4/10/3 16/42/3
f 20/54/3 48/131/3 62/166/3 60/161/3 34/90/3 6/16/3
f 7/19/3 35/92/3 45/121/3 17/44/3
f 17/45/1 45/122/1 46/124/1 18/47/1
f 37/99/4 38/101/4 40/107/4 39/105/4
f 35/93/4 36/95/4 46/125/4 45/123/4
f 12/30/5 40/108/5 38/102/5 10/26/5
f 47/128/4 61/163/4 62/167/4 48/132/4
f 2/3/3 14/36/3 42/113/3 70/188/3 68/182/3 30/79/3
f 41/111/4 69/186/4 70/189/4 42/114/4
f 29/77/4 1/2/4 51/137/4 52/140/4
f 53/143/1 54/145/1 56/150/1 71/191/1
f 52/141/2 51/138/2 72/193/2 55/147/2
f 30/80/2 57/153/2 74/197/2 2/4/2
f 55/148/5 72/194/5 71/192/5 56/151/5
f 57/154/3 58/156/3 73/196/3 74/198/3
f 54/146/4 52/142/4 55/149/4 56/152/4
f 43/117/4 65/174/4 66/177/4 44/120/4
f 50/135/4 58/157/4 57/155/4 30/81/4
f 59/159/1 60/162/1 62/168/1 61/164/1
f 19/51/5 5/13/5 33/88/5 59/160/5 61/165/5 47/129/5
f 24/63/6 53/144/6 49/133/6 23/61/6
f 63/170/1 64/172/1 66/178/1 65/175/1
f 67/180/1 68/183/1 70/190/1 69/187/1
f 29/78/6 30/82/6 68/184/6 67/181/6
f 18/48/5 46/126/5 36/96/5 8/22/5
f 10/27/6 9/25/6 11/29/6 12/31/6
f 14/37/6 2/5/6 51/139/6 13/34/6
f 4/11/6 3/8/6 15/40/6 16/43/6
f 6/17/6 5/14/6 19/52/6 20/55/6
f 8/23/6 7/20/6 17/46/6 18/49/6
f 50/136/1 49/134/1 73/195/1 58/158/1
f 75/199/6 76/200/6 71/192/6 72/194/6
f 77/201/6 78/202/6 74/198/6 73/196/6
f 78/202/6 75/199/6 72/194/6 74/198/6
f 76/200/6 77/201/6 73/196/6 71/192/6
f 78/202/6 77/201/6 76/200/6 75/199/6
l 1 2
