# Blender 3.4.1
# www.blender.org
mtllib движок.mtl
o Cube
v -0.390208 0.078503 -0.390208
v 0.400000 -0.400000 -0.400000
v -0.400000 -0.041123 -0.400000
v 0.400000 -0.400000 0.400000
v -0.400000 -0.160749 -0.400000
v -0.400000 -0.400000 -0.400000
v -0.373650 -0.280374 -0.373650
v -0.400000 -0.400000 0.400000
v 0.317754 0.400000 -0.317754
v 0.400000 0.317754 -0.400000
v 0.317754 0.400000 0.317754
v 0.400000 0.317754 0.400000
v -0.317754 0.400000 -0.317754
v -0.400000 0.317754 -0.400000
v -0.317754 0.400000 0.317754
v -0.400000 0.317754 0.400000
v -0.400000 0.198129 -0.400000
v 0.400000 0.198129 -0.400000
v 0.390208 0.078503 -0.390208
v 0.400000 -0.041123 -0.400000
v 0.400000 -0.160749 -0.400000
v 0.373650 -0.280374 -0.373650
v 0.400000 0.198129 0.400000
v 0.390208 0.078503 0.390208
v 0.400000 -0.041123 0.400000
v 0.400000 -0.160749 0.400000
v 0.373650 -0.280374 0.373650
v -0.400000 0.198129 0.400000
v -0.390208 0.078503 0.390208
v -0.400000 -0.041123 0.400000
v -0.400000 -0.160749 0.400000
v -0.373650 -0.280374 0.373650
v -0.400000 0.095592 -0.400000
v -0.390208 0.111845 -0.390208
v -0.400000 0.129771 -0.400000
v -0.390208 0.145187 -0.390208
v -0.400000 0.163950 -0.400000
v -0.390208 0.178529 -0.390208
v 0.390208 0.178529 -0.390208
v 0.400000 0.163950 -0.400000
v 0.390208 0.145187 -0.390208
v 0.400000 0.129771 -0.400000
v 0.390208 0.111845 -0.390208
v 0.400000 0.095592 -0.400000
v 0.390208 0.178529 0.390208
v 0.400000 0.163950 0.400000
v 0.390208 0.145187 0.390208
v 0.400000 0.129771 0.400000
v 0.390208 0.111845 0.390208
v 0.400000 0.095592 0.400000
v -0.390208 0.178529 0.390208
v -0.400000 0.163950 0.400000
v -0.390208 0.145187 0.390208
v -0.400000 0.129771 0.400000
v -0.390208 0.111845 0.390208
v -0.400000 0.095592 0.400000
v 0.400000 0.061414 -0.400000
v 0.390208 0.045161 -0.390208
v 0.400000 0.027235 -0.400000
v 0.390208 0.011819 -0.390208
v 0.400000 -0.006944 -0.400000
v 0.390208 -0.021523 -0.390208
v -0.390208 -0.021523 -0.390208
v -0.400000 -0.006944 -0.400000
v -0.390208 0.011819 -0.390208
v -0.400000 0.027235 -0.400000
v -0.390208 0.045161 -0.390208
v -0.400000 0.061414 -0.400000
v 0.400000 0.061414 0.400000
v 0.390208 0.045161 0.390208
v 0.400000 0.027235 0.400000
v 0.390208 0.011819 0.390208
v 0.400000 -0.006944 0.400000
v 0.390208 -0.021523 0.390208
v -0.400000 0.061414 0.400000
v -0.390208 0.045161 0.390208
v -0.400000 0.027235 0.400000
v -0.390208 0.011819 0.390208
v -0.400000 -0.006944 0.400000
v -0.390208 -0.021523 0.390208
v -0.400000 -0.398550 -0.400000
v -0.356131 -0.442419 -0.356131
v -0.356131 -0.442419 0.356131
v -0.400000 -0.398550 0.400000
v 0.400000 -0.398550 -0.400000
v 0.356131 -0.442419 -0.356131
v 0.356131 -0.442419 0.356131
v 0.400000 -0.398550 0.400000
v -0.001319 -0.501458 -0.268174
v -0.001319 0.173367 -0.330176
v 0.052411 -0.501458 -0.262882
v 0.064507 0.173367 -0.323693
v 0.104076 -0.501458 -0.247210
v 0.127803 0.173367 -0.304492
v 0.151691 -0.501458 -0.221759
v 0.186137 0.173367 -0.273312
v 0.193425 -0.501458 -0.187508
v 0.237268 0.173367 -0.231351
v 0.227676 -0.501458 -0.145774
v 0.279229 0.173367 -0.180220
v 0.253127 -0.501458 -0.098159
v 0.310409 0.173367 -0.121886
v 0.268799 -0.501458 -0.046494
v 0.329610 0.173367 -0.058590
v 0.274091 -0.501458 0.007236
v 0.336093 0.173367 0.007236
v 0.268799 -0.501458 0.060966
v 0.329610 0.173367 0.073062
v 0.253127 -0.501458 0.112631
v 0.310409 0.173367 0.136358
v 0.227676 -0.501458 0.160246
v 0.279229 0.173367 0.194692
v 0.193425 -0.501458 0.201980
v 0.237268 0.173367 0.245823
v 0.151691 -0.501458 0.236231
v 0.186137 0.173367 0.287784
v 0.104076 -0.501458 0.261682
v 0.127803 0.173367 0.318964
v 0.052411 -0.501458 0.277354
v 0.064507 0.173367 0.338165
v -0.001319 -0.501458 0.282646
v -0.001319 0.173367 0.344648
v -0.055049 -0.501458 0.277354
v -0.067145 0.173367 0.338165
v -0.106714 -0.501458 0.261682
v -0.130441 0.173367 0.318964
v -0.154329 -0.501458 0.236231
v -0.188775 0.173367 0.287784
v -0.196063 -0.501458 0.201980
v -0.239906 0.173367 0.245823
v -0.230314 -0.501458 0.160246
v -0.281867 0.173367 0.194692
v -0.255765 -0.501458 0.112631
v -0.313047 0.173367 0.136358
v -0.271437 -0.501458 0.060966
v -0.332248 0.173367 0.073062
v -0.276729 -0.501458 0.007236
v -0.338731 0.173367 0.007236
v -0.271437 -0.501458 -0.046494
v -0.332248 0.173367 -0.058590
v -0.255765 -0.501458 -0.098159
v -0.313047 0.173367 -0.121886
v -0.230314 -0.501458 -0.145774
v -0.281867 0.173367 -0.180220
v -0.196063 -0.501458 -0.187508
v -0.239906 0.173367 -0.231351
v -0.154329 -0.501458 -0.221759
v -0.188775 0.173367 -0.273312
v -0.106714 -0.501458 -0.247210
v -0.130441 0.173367 -0.304492
v -0.055049 -0.501458 -0.262882
v -0.067145 0.173367 -0.323693
v -0.001319 -0.501458 -0.330176
v 0.064507 -0.501458 -0.323693
v 0.127803 -0.501458 -0.304492
v 0.186137 -0.501458 -0.273312
v 0.237268 -0.501458 -0.231351
v 0.279229 -0.501458 -0.180220
v 0.310409 -0.501458 -0.121886
v 0.329610 -0.501458 -0.058590
v 0.336093 -0.501458 0.007236
v 0.329610 -0.501458 0.073062
v 0.310409 -0.501458 0.136358
v 0.279229 -0.501458 0.194692
v 0.237268 -0.501458 0.245823
v 0.186137 -0.501458 0.287784
v 0.127803 -0.501458 0.318964
v 0.064507 -0.501458 0.338165
v -0.001319 -0.501458 0.344648
v -0.067145 -0.501458 0.338165
v -0.130441 -0.501458 0.318964
v -0.188775 -0.501458 0.287784
v -0.239906 -0.501458 0.245823
v -0.281867 -0.501458 0.194692
v -0.313047 -0.501458 0.136358
v -0.332248 -0.501458 0.073062
v -0.338731 -0.501458 0.007236
v -0.332248 -0.501458 -0.058590
v -0.313047 -0.501458 -0.121886
v -0.281867 -0.501458 -0.180220
v -0.239906 -0.501458 -0.231351
v -0.188775 -0.501458 -0.273312
v -0.130441 -0.501458 -0.304492
v -0.067145 -0.501458 -0.323693
vn -0.0000 -0.0000 1.0000
vn -1.0000 -0.0000 -0.0000
vn -0.0000 0.2151 -0.9766
vn -0.0000 -0.0000 -1.0000
vn -0.0000 1.0000 -0.0000
vn 1.0000 -0.0000 -0.0000
vn -0.0000 0.7071 0.7071
vn 0.7071 0.7071 -0.0000
vn -0.7071 0.7071 -0.0000
vn -0.0000 0.7071 -0.7071
vn -0.0000 -0.2151 -0.9766
vn -0.0000 0.4972 -0.8677
vn -0.0000 -0.4469 -0.8946
vn 0.9766 0.2151 -0.0000
vn 0.9766 -0.2151 -0.0000
vn 0.8677 0.4972 -0.0000
vn 0.8946 -0.4469 -0.0000
vn -0.9766 0.2151 -0.0000
vn -0.9766 -0.2151 -0.0000
vn -0.8677 0.4972 -0.0000
vn -0.8946 -0.4469 -0.0000
vn -0.0000 0.2151 0.9766
vn -0.0000 -0.2151 0.9766
vn -0.0000 0.4972 0.8677
vn -0.0000 -0.4469 0.8946
vn -0.0000 -0.4972 0.8677
vn -0.0000 0.5161 0.8566
vn -0.0000 -0.4794 0.8776
vn -0.0000 0.5362 0.8441
vn -0.0000 -0.4627 0.8865
vn -0.0000 0.5576 0.8301
vn -0.8677 -0.4972 -0.0000
vn -0.8566 0.5161 -0.0000
vn -0.8776 -0.4794 -0.0000
vn -0.8441 0.5362 -0.0000
vn -0.8865 -0.4627 -0.0000
vn -0.8301 0.5576 -0.0000
vn 0.8677 -0.4972 -0.0000
vn 0.8566 0.5161 -0.0000
vn 0.8776 -0.4794 -0.0000
vn 0.8441 0.5362 -0.0000
vn 0.8865 -0.4627 -0.0000
vn 0.8301 0.5576 -0.0000
vn -0.0000 -0.4972 -0.8677
vn -0.0000 0.5161 -0.8566
vn -0.0000 -0.4794 -0.8776
vn -0.0000 0.5362 -0.8441
vn -0.0000 -0.4627 -0.8865
vn -0.0000 0.5576 -0.8301
vn -0.0000 0.4469 0.8946
vn -0.0000 -0.5576 0.8301
vn -0.0000 0.4627 0.8865
vn -0.0000 -0.5362 0.8441
vn -0.0000 0.4794 0.8776
vn -0.0000 -0.5161 0.8566
vn -0.8946 0.4469 -0.0000
vn -0.8301 -0.5576 -0.0000
vn -0.8865 0.4627 -0.0000
vn -0.8441 -0.5362 -0.0000
vn -0.8776 0.4794 -0.0000
vn -0.8566 -0.5161 -0.0000
vn 0.8946 0.4469 -0.0000
vn 0.8301 -0.5576 -0.0000
vn 0.8865 0.4627 -0.0000
vn 0.8441 -0.5362 -0.0000
vn 0.8776 0.4794 -0.0000
vn 0.8566 -0.5161 -0.0000
vn -0.0000 0.4469 -0.8946
vn -0.0000 -0.5576 -0.8301
vn -0.0000 0.4627 -0.8865
vn -0.0000 -0.5362 -0.8441
vn -0.0000 0.4794 -0.8776
vn -0.0000 -0.5161 -0.8566
vn -0.7071 -0.7071 -0.0000
vn -0.0000 -0.7071 -0.7071
vn -0.0000 -0.7071 0.7071
vn 0.7071 -0.7071 -0.0000
vn -0.0000 -1.0000 -0.0000
vn 0.0980 -0.0000 -0.9952
vn 0.2903 -0.0000 -0.9569
vn 0.4714 -0.0000 -0.8819
vn 0.6344 -0.0000 -0.7730
vn 0.7730 -0.0000 -0.6344
vn 0.8819 -0.0000 -0.4714
vn 0.9569 -0.0000 -0.2903
vn 0.9952 -0.0000 -0.0980
vn 0.9952 -0.0000 0.0980
vn 0.9569 -0.0000 0.2903
vn 0.8819 -0.0000 0.4714
vn 0.7730 -0.0000 0.6344
vn 0.6344 -0.0000 0.7730
vn 0.4714 -0.0000 0.8819
vn 0.2903 -0.0000 0.9569
vn 0.0980 -0.0000 0.9952
vn -0.0980 -0.0000 0.9952
vn -0.2903 -0.0000 0.9569
vn -0.4714 -0.0000 0.8819
vn -0.6344 -0.0000 0.7730
vn -0.7730 -0.0000 0.6344
vn -0.8819 -0.0000 0.4714
vn -0.9569 -0.0000 0.2903
vn -0.9952 -0.0000 0.0980
vn -0.9952 -0.0000 -0.0980
vn -0.9569 -0.0000 -0.2903
vn -0.8819 -0.0000 -0.4714
vn -0.7730 -0.0000 -0.6344
vn -0.6344 -0.0000 -0.7730
vn -0.4714 -0.0000 -0.8819
vn -0.2903 -0.0000 -0.9569
vn -0.0980 -0.0000 -0.9952
vt 0.113103 0.314781
vt 0.340861 0.795966
vt 0.481514 0.784649
vt 0.375000 0.500000
vt 0.520430 0.836339
vt 0.084710 0.314781
vt 0.481514 0.733447
vt 0.375000 0.750000
vt 0.141348 0.201003
vt 0.527427 0.831212
vt 0.481514 0.835851
vt 0.375000 0.250000
vt 0.473858 0.835851
vt 0.103965 0.201003
vt 0.375000 1.000000
vt 0.481514 0.887053
vt 0.481514 0.682245
vt 0.375000 0.000000
vt 0.614043 0.035382
vt 0.407064 0.169115
vt 0.381764 0.156465
vt 0.394414 0.156465
vt 0.574072 0.773612
vt 0.614043 0.589707
vt 0.407064 0.266862
vt 0.487649 0.778677
vt 0.627520 0.773612
vt 0.394414 0.279512
vt 0.381764 0.279512
vt 0.962085 0.035382
vt 0.504811 0.169115
vt 0.611936 0.876671
vt 0.517461 0.156465
vt 0.520624 0.773612
vt 0.962085 0.589707
vt 0.504811 0.266862
vt 0.628274 0.778677
vt 0.471311 0.876671
vt 0.517461 0.279512
vt 0.611936 0.943130
vt 0.520624 0.798871
vt 0.358933 0.795966
vt 0.574072 0.798871
vt 0.358932 0.916822
vt 0.296883 0.647399
vt 0.113103 0.504666
vt 0.270725 0.647399
vt 0.340861 0.916822
vt 0.509581 0.789546
vt 0.084710 0.504666
vt 0.141348 0.451003
vt 0.516578 0.784418
vt 0.473858 0.784649
vt 0.103965 0.451003
vt 0.487649 0.845136
vt 0.627520 0.798871
vt 0.296883 0.822329
vt 0.113103 0.694551
vt 0.270725 0.822329
vt 0.498733 0.742752
vt 0.084710 0.694551
vt 0.141348 0.701003
vt 0.505730 0.737625
vt 0.473858 0.733447
vt 0.103965 0.701003
vt 0.628274 0.845136
vt 0.471311 0.943130
vt 0.358933 0.675109
vt 0.296883 0.997259
vt 0.113103 0.124896
vt 0.113103 0.884436
vt 0.270725 0.997259
vt 0.340861 0.675109
vt 0.531279 0.883133
vt 0.487884 0.695958
vt 0.084710 0.884436
vt 0.084710 0.124896
vt 0.141348 -0.048997
vt 0.538276 0.878006
vt 0.141348 0.951003
vt 0.494881 0.690831
vt 0.473858 0.887053
vt 0.103965 -0.048997
vt 0.473858 0.682245
vt 0.103965 0.951003
vt 0.343442 0.795966
vt 0.117160 0.314781
vt 0.121216 0.314781
vt 0.346024 0.795966
vt 0.348606 0.795966
vt 0.125272 0.314781
vt 0.129328 0.314781
vt 0.351187 0.795966
vt 0.353769 0.795966
vt 0.133385 0.314781
vt 0.356351 0.795966
vt 0.137441 0.314781
vt 0.356351 0.916822
vt 0.293146 0.647399
vt 0.137441 0.504666
vt 0.289409 0.647399
vt 0.353769 0.916822
vt 0.133385 0.504666
vt 0.285672 0.647399
vt 0.129328 0.504666
vt 0.351187 0.916822
vt 0.281935 0.647399
vt 0.348606 0.916822
vt 0.125272 0.504666
vt 0.278199 0.647399
vt 0.121216 0.504666
vt 0.346024 0.916822
vt 0.274462 0.647399
vt 0.343442 0.916822
vt 0.117160 0.504666
vt 0.293146 0.822329
vt 0.137441 0.694551
vt 0.289409 0.822329
vt 0.133385 0.694551
vt 0.129328 0.694551
vt 0.285672 0.822329
vt 0.281935 0.822329
vt 0.125272 0.694551
vt 0.121216 0.694551
vt 0.278199 0.822329
vt 0.274462 0.822329
vt 0.117160 0.694551
vt 0.356351 0.675109
vt 0.293146 0.997259
vt 0.137441 0.884436
vt 0.137441 0.124896
vt 0.289409 0.997259
vt 0.133385 0.884436
vt 0.353769 0.675109
vt 0.133385 0.124896
vt 0.129328 0.884436
vt 0.285672 0.997259
vt 0.129328 0.124896
vt 0.351187 0.675109
vt 0.281935 0.997259
vt 0.125272 0.884436
vt 0.348606 0.675109
vt 0.125272 0.124896
vt 0.121216 0.884436
vt 0.278199 0.997259
vt 0.121216 0.124896
vt 0.346024 0.675109
vt 0.274462 0.997259
vt 0.117160 0.884436
vt 0.343442 0.675109
vt 0.117160 0.124896
vt 0.109047 0.504666
vt 0.266988 0.647399
vt 0.338279 0.916822
vt 0.263251 0.647399
vt 0.104991 0.504666
vt 0.335697 0.916822
vt 0.259514 0.647399
vt 0.333115 0.916822
vt 0.100935 0.504666
vt 0.255778 0.647399
vt 0.096878 0.504666
vt 0.330534 0.916822
vt 0.252041 0.647399
vt 0.327952 0.916822
vt 0.092822 0.504666
vt 0.248304 0.647399
vt 0.088766 0.504666
vt 0.325370 0.916822
vt 0.088766 0.314781
vt 0.325370 0.795966
vt 0.327952 0.795966
vt 0.092822 0.314781
vt 0.096878 0.314781
vt 0.330534 0.795966
vt 0.333115 0.795966
vt 0.100935 0.314781
vt 0.104991 0.314781
vt 0.335697 0.795966
vt 0.109047 0.314781
vt 0.338279 0.795966
vt 0.109047 0.694551
vt 0.266988 0.822329
vt 0.104991 0.694551
vt 0.263251 0.822329
vt 0.259514 0.822329
vt 0.100935 0.694551
vt 0.096878 0.694551
vt 0.255778 0.822329
vt 0.252041 0.822329
vt 0.092822 0.694551
vt 0.088766 0.694551
vt 0.248304 0.822329
vt 0.109047 0.124896
vt 0.109047 0.884436
vt 0.266988 0.997259
vt 0.338279 0.675109
vt 0.104991 0.884436
vt 0.263251 0.997259
vt 0.104991 0.124896
vt 0.335697 0.675109
vt 0.259514 0.997259
vt 0.100935 0.884436
vt 0.333115 0.675109
vt 0.100935 0.124896
vt 0.096878 0.884436
vt 0.255778 0.997259
vt 0.096878 0.124896
vt 0.330534 0.675109
vt 0.252041 0.997259
vt 0.092822 0.884436
vt 0.327952 0.675109
vt 0.092822 0.124896
vt 0.088766 0.884436
vt 0.248304 0.997259
vt 0.088766 0.124896
vt 0.325370 0.675109
vt 0.375000 0.250000
vt 0.125000 0.500000
vt 0.138709 0.513709
vt 0.440644 0.736462
vt 0.138709 0.736291
vt 0.440644 0.919513
vt 0.375000 1.000000
vt 0.375000 0.000000
vt 0.125000 0.750000
vt 0.375000 0.500000
vt 0.361291 0.513709
vt 0.623696 0.736462
vt 0.361291 0.736291
vt 0.623696 0.919513
vt 0.375000 0.750000
vt 0.000000 0.000000
vt 0.000000 0.000000
vt 0.000000 0.000000
vt 0.000000 0.000000
vt 0.000000 0.000000
vt 0.000000 0.000000
vt 0.000000 0.000000
vt 0.000000 0.000000
vt 0.000000 0.000000
vt 0.000000 0.000000
vt 0.000000 0.000000
vt 0.000000 0.000000
vt 0.000000 0.000000
vt 0.000000 0.000000
vt 0.000000 0.000000
vt 0.000000 0.000000
vt 0.000000 0.000000
vt 0.000000 0.000000
vt 0.000000 0.000000
vt 0.000000 0.000000
vt 0.000000 0.000000
vt 0.000000 0.000000
vt 0.000000 0.000000
vt 0.000000 0.000000
vt 0.000000 0.000000
vt 0.000000 0.000000
vt 0.000000 0.000000
vt 0.000000 0.000000
vt 0.000000 0.000000
vt 0.000000 0.000000
vt 0.000000 0.000000
vt 0.000000 0.000000
vt 0.000000 0.000000
vt 0.000000 0.000000
vt 0.000000 0.000000
vt 0.000000 0.000000
vt 0.000000 0.000000
vt 0.000000 0.000000
vt 0.000000 0.000000
vt 0.000000 0.000000
vt 0.000000 0.000000
vt 0.000000 0.000000
vt 0.000000 0.000000
vt 0.000000 0.000000
vt 0.000000 0.000000
vt 0.000000 0.000000
vt 0.000000 0.000000
vt 0.000000 0.000000
vt 0.000000 0.000000
vt 0.000000 0.000000
vt 0.000000 0.000000
vt 0.000000 0.000000
vt 0.000000 0.000000
vt 0.000000 0.000000
vt 0.000000 0.000000
vt 0.000000 0.000000
vt 0.000000 0.000000
vt 0.000000 0.000000
vt 0.000000 0.000000
vt 0.000000 0.000000
vt 0.000000 0.000000
vt 0.000000 0.000000
vt 0.000000 0.000000
vt 0.000000 0.000000
vt 0.000000 0.000000
vt 0.000000 0.000000
vt 0.000000 0.000000
vt 0.000000 0.000000
vt 0.000000 0.000000
vt 0.000000 0.000000
vt 0.000000 0.000000
vt 0.000000 0.000000
vt 0.000000 0.000000
vt 0.000000 0.000000
vt 0.000000 0.000000
vt 0.000000 0.000000
vt 0.000000 0.000000
vt 0.000000 0.000000
vt 0.000000 0.000000
vt 0.000000 0.000000
vt 0.000000 0.000000
vt 0.000000 0.000000
vt 0.000000 0.000000
vt 0.000000 0.000000
vt 0.000000 0.000000
vt 0.000000 0.000000
vt 0.000000 0.000000
vt 0.000000 0.000000
vt 0.000000 0.000000
vt 0.000000 0.000000
vt 0.000000 0.000000
vt 0.000000 0.000000
vt 0.000000 0.000000
vt 0.000000 0.000000
vt 0.000000 0.000000
vt 0.000000 0.000000
s 0
usemtl Material
f 23/55/1 12/26/1 16/37/1 28/66/1
f 28/67/2 16/38/2 14/32/2 17/40/2
f 6/11/3 7/13/3 22/53/3 2/3/3
f 4/8/4 8/15/4 84/224/4 88/232/4
f 9/19/5 13/30/5 15/35/5 11/24/5
f 18/43/6 10/23/6 12/27/6 23/56/6
f 11/25/7 15/36/7 16/39/7 12/28/7
f 9/20/8 11/25/8 12/29/8 10/21/8
f 15/36/9 13/31/9 14/33/9 16/39/9
f 13/31/10 9/20/10 10/22/10 14/33/10
f 17/41/4 14/34/4 10/23/4 18/43/4
f 7/14/11 5/9/11 21/51/11 22/54/11
f 5/10/4 3/5/4 20/49/4 21/52/4
f 68/180/12 1/1/12 19/46/12 57/152/12
f 38/96/13 17/42/13 18/44/13 39/98/13
f 2/3/14 22/53/14 27/64/14 4/7/14
f 22/54/15 21/51/15 26/62/15 27/65/15
f 21/52/6 20/49/6 25/60/6 26/63/6
f 57/152/16 19/46/16 24/58/16 69/182/16
f 39/99/17 18/45/17 23/57/17 45/116/17
f 8/16/18 32/82/18 7/13/18 6/11/18
f 32/83/19 31/78/19 5/9/19 7/14/19
f 31/79/2 30/74/2 3/5/2 5/10/2
f 75/194/20 29/70/20 1/1/20 68/180/20
f 51/128/21 28/68/21 17/42/21 38/96/21
f 4/7/22 27/64/22 32/84/22 8/17/22
f 27/65/23 26/62/23 31/80/23 32/85/23
f 26/63/1 25/60/1 30/75/1 31/81/1
f 69/182/24 24/58/24 29/71/24 75/195/24
f 45/116/25 23/57/25 28/69/25 51/129/25
f 24/59/26 50/126/26 56/148/26 29/72/26
f 50/127/27 49/124/27 55/144/27 56/149/27
f 49/125/28 48/122/28 54/140/28 55/145/28
f 48/123/29 47/120/29 53/136/29 54/141/29
f 47/121/30 46/118/30 52/132/30 53/137/30
f 46/119/31 45/117/31 51/130/31 52/133/31
f 29/73/32 56/150/32 33/86/32 1/2/32
f 56/151/33 55/146/33 34/88/33 33/87/33
f 55/147/34 54/142/34 35/90/34 34/89/34
f 54/143/35 53/138/35 36/92/35 35/91/35
f 53/139/36 52/134/36 37/94/36 36/93/36
f 52/135/37 51/131/37 38/97/37 37/95/37
f 19/47/38 44/113/38 50/126/38 24/59/38
f 44/115/39 43/111/39 49/124/39 50/127/39
f 43/110/40 42/107/40 48/122/40 49/125/40
f 42/109/41 41/105/41 47/120/41 48/123/41
f 41/104/42 40/101/42 46/118/42 47/121/42
f 40/103/43 39/100/43 45/117/43 46/119/43
f 1/2/44 33/86/44 44/114/44 19/48/44
f 33/87/45 34/88/45 43/111/45 44/115/45
f 34/89/46 35/90/46 42/108/46 43/112/46
f 35/91/47 36/92/47 41/105/47 42/109/47
f 36/93/48 37/94/48 40/102/48 41/106/48
f 37/95/49 38/97/49 39/100/49 40/103/49
f 25/61/50 74/192/50 80/214/50 30/76/50
f 74/193/51 73/190/51 79/210/51 80/215/51
f 73/191/52 72/188/52 78/206/52 79/211/52
f 72/189/53 71/186/53 77/202/53 78/207/53
f 71/187/54 70/184/54 76/198/54 77/203/54
f 70/185/55 69/183/55 75/196/55 76/199/55
f 30/77/56 80/216/56 63/170/56 3/6/56
f 80/217/57 79/212/57 64/172/57 63/171/57
f 79/213/58 78/208/58 65/174/58 64/173/58
f 78/209/59 77/204/59 66/176/59 65/175/59
f 77/205/60 76/200/60 67/178/60 66/177/60
f 76/201/61 75/197/61 68/181/61 67/179/61
f 20/50/62 62/168/62 74/192/62 25/61/62
f 62/167/63 61/164/63 73/190/63 74/193/63
f 61/166/64 60/162/64 72/188/64 73/191/64
f 60/161/65 59/158/65 71/186/65 72/189/65
f 59/160/66 58/156/66 70/184/66 71/187/66
f 58/155/67 57/153/67 69/183/67 70/185/67
f 3/6/68 63/170/68 62/168/68 20/50/68
f 63/171/69 64/172/69 61/165/69 62/169/69
f 64/173/70 65/174/70 60/162/70 61/166/70
f 65/175/71 66/176/71 59/159/71 60/163/71
f 66/177/72 67/178/72 58/156/72 59/160/72
f 67/179/73 68/181/73 57/154/73 58/157/73
f 6/12/1 2/4/1 85/227/1 81/218/1
f 8/18/6 6/12/6 81/218/6 84/225/6
f 2/4/2 4/8/2 88/232/2 85/227/2
f 82/220/74 83/222/74 84/226/74 81/219/74
f 86/228/75 82/220/75 81/219/75 85/227/75
f 83/222/76 87/230/76 88/232/76 84/226/76
f 87/230/77 86/228/77 85/227/77 88/232/77
f 82/221/78 86/229/78 87/231/78 83/223/78
usemtl Материал.001
f 153/297/79 90/234/79 92/236/79 154/298/79
f 154/298/80 92/236/80 94/238/80 155/299/80
f 155/299/81 94/238/81 96/240/81 156/300/81
f 156/300/82 96/240/82 98/242/82 157/301/82
f 157/301/83 98/242/83 100/244/83 158/302/83
f 158/302/84 100/244/84 102/246/84 159/303/84
f 159/303/85 102/246/85 104/248/85 160/304/85
f 160/304/86 104/248/86 106/250/86 161/305/86
f 161/305/87 106/250/87 108/252/87 162/306/87
f 162/306/88 108/252/88 110/254/88 163/307/88
f 163/307/89 110/254/89 112/256/89 164/308/89
f 164/308/90 112/256/90 114/258/90 165/309/90
f 165/309/91 114/258/91 116/260/91 166/310/91
f 166/310/92 116/260/92 118/262/92 167/311/92
f 167/311/93 118/262/93 120/264/93 168/312/93
f 168/312/94 120/264/94 122/266/94 169/313/94
f 169/313/95 122/266/95 124/268/95 170/314/95
f 170/314/96 124/268/96 126/270/96 171/315/96
f 171/315/97 126/270/97 128/272/97 172/316/97
f 172/316/98 128/272/98 130/274/98 173/317/98
f 173/317/99 130/274/99 132/276/99 174/318/99
f 174/318/100 132/276/100 134/278/100 175/319/100
f 175/319/101 134/278/101 136/280/101 176/320/101
f 176/320/102 136/280/102 138/282/102 177/321/102
f 177/321/103 138/282/103 140/284/103 178/322/103
f 178/322/104 140/284/104 142/286/104 179/323/104
f 179/323/105 142/286/105 144/288/105 180/324/105
f 180/324/106 144/288/106 146/290/106 181/325/106
f 181/325/107 146/290/107 148/292/107 182/326/107
f 182/326/108 148/292/108 150/294/108 183/327/108
f 92/236/5 90/234/5 152/296/5 150/294/5 148/292/5 146/290/5 144/288/5 142/286/5 140/284/5 138/282/5 136/280/5 134/278/5 132/276/5 130/274/5 128/272/5 126/270/5 124/268/5 122/266/5 120/264/5 118/262/5 116/260/5 114/258/5 112/256/5 110/254/5 108/252/5 106/250/5 104/248/5 102/246/5 100/244/5 98/242/5 96/240/5 94/238/5
f 183/327/109 150/294/109 152/296/109 184/328/109
f 184/328/110 152/296/110 90/234/110 153/297/110
f 91/235/78 89/233/78 153/297/78 154/298/78
f 93/237/78 91/235/78 154/298/78 155/299/78
f 95/239/78 93/237/78 155/299/78 156/300/78
f 97/241/78 95/239/78 156/300/78 157/301/78
f 99/243/78 97/241/78 157/301/78 158/302/78
f 101/245/78 99/243/78 158/302/78 159/303/78
f 103/247/78 101/245/78 159/303/78 160/304/78
f 105/249/78 103/247/78 160/304/78 161/305/78
f 107/251/78 105/249/78 161/305/78 162/306/78
f 109/253/78 107/251/78 162/306/78 163/307/78
f 111/255/78 109/253/78 163/307/78 164/308/78
f 113/257/78 111/255/78 164/308/78 165/309/78
f 115/259/78 113/257/78 165/309/78 166/310/78
f 117/261/78 115/259/78 166/310/78 167/311/78
f 119/263/78 117/261/78 167/311/78 168/312/78
f 121/265/78 119/263/78 168/312/78 169/313/78
f 123/267/78 121/265/78 169/313/78 170/314/78
f 125/269/78 123/267/78 170/314/78 171/315/78
f 127/271/78 125/269/78 171/315/78 172/316/78
f 129/273/78 127/271/78 172/316/78 173/317/78
f 131/275/78 129/273/78 173/317/78 174/318/78
f 133/277/78 131/275/78 174/318/78 175/319/78
f 135/279/78 133/277/78 175/319/78 176/320/78
f 137/281/78 135/279/78 176/320/78 177/321/78
f 139/283/78 137/281/78 177/321/78 178/322/78
f 141/285/78 139/283/78 178/322/78 179/323/78
f 143/287/78 141/285/78 179/323/78 180/324/78
f 145/289/78 143/287/78 180/324/78 181/325/78
f 147/291/78 145/289/78 181/325/78 182/326/78
f 149/293/78 147/291/78 182/326/78 183/327/78
f 151/295/78 149/293/78 183/327/78 184/328/78
f 89/233/78 151/295/78 184/328/78 153/297/78
